<?xml version="1.0" standalone="no"?>
<!DOCTYPE svg PUBLIC "-//W3C//DTD SVG 20010904//EN"
 "http://www.w3.org/TR/2001/REC-SVG-20010904/DTD/svg10.dtd">
<svg version="1.0" xmlns="http://www.w3.org/2000/svg"
 width="1280.000000pt" height="1280.000000pt" viewBox="0 0 1280.000000 1280.000000"
 preserveAspectRatio="xMidYMid meet">
<metadata>
Created by potrace 1.11, written by Peter Selinger 2001-2013
</metadata>
<g transform="translate(0.000000,1280.000000) scale(0.100000,-0.100000)"
fill="#000000" stroke="none">
<path d="M12770 10690 c0 -11 5 -20 10 -20 6 0 10 9 10 20 0 11 -4 20 -10 20
-5 0 -10 -9 -10 -20z"/>
<path d="M12770 10530 c0 -11 5 -20 10 -20 6 0 10 9 10 20 0 11 -4 20 -10 20
-5 0 -10 -9 -10 -20z"/>
<path d="M975 10421 c-216 -63 -367 -225 -431 -462 -14 -53 -17 -116 -19 -374
-1 -170 0 -315 3 -322 2 -8 153 -11 588 -11 l584 0 1 26 c1 33 -1 581 -2 602
-2 31 -31 137 -52 185 -67 161 -205 292 -367 350 -68 25 -231 28 -305 6z"/>
<path d="M3020 10424 c-225 -59 -403 -262 -448 -510 -5 -28 -8 -188 -8 -355
l1 -304 588 -1 588 -2 -4 332 c-2 182 -6 342 -10 355 -43 158 -115 281 -216
366 -48 41 -145 95 -200 111 -75 23 -221 27 -291 8z"/>
<path d="M5065 10427 c-203 -53 -361 -207 -432 -422 -27 -79 -27 -83 -31 -417
l-3 -337 588 2 588 2 0 320 c0 281 -2 328 -19 390 -57 213 -204 380 -393 446
-74 26 -228 34 -298 16z"/>
<path d="M6485 10421 c-210 -61 -361 -222 -426 -456 -21 -74 -22 -102 -23
-395 l-1 -315 888 -2 c633 -1 898 -5 925 -13 196 -60 323 -225 324 -420 0 -41
-5 -87 -11 -102 -6 -16 -8 -28 -5 -28 3 0 -10 -28 -28 -62 -60 -113 -160 -195
-278 -229 -35 -10 -243 -13 -920 -13 -481 -1 -880 -4 -885 -8 -11 -7 -12
-2002 -1 -2077 13 -87 78 -242 121 -287 5 -6 26 -30 45 -54 68 -82 202 -162
318 -190 322 -76 660 163 727 514 10 51 13 176 12 482 -1 228 0 414 3 415 3 1
183 2 400 4 217 1 409 5 425 8 17 3 50 9 75 12 25 3 53 8 62 11 9 3 25 7 37 9
50 9 174 48 232 71 329 134 585 345 779 645 33 52 66 108 72 126 l12 32 50
-42 c28 -23 60 -50 71 -60 64 -58 285 -186 420 -244 88 -38 236 -90 390 -138
83 -25 159 -50 170 -54 11 -5 67 -26 125 -46 201 -72 340 -151 380 -218 66
-108 6 -232 -139 -288 -43 -17 -83 -23 -171 -25 -172 -5 -288 22 -570 129
-304 116 -392 137 -560 133 -161 -4 -258 -42 -365 -143 -111 -103 -183 -273
-189 -441 -11 -295 160 -514 546 -701 162 -78 408 -155 558 -175 25 -3 55 -8
66 -10 87 -17 366 -24 509 -13 139 11 216 23 360 58 493 118 862 392 1055 784
80 163 107 249 145 465 14 75 13 385 0 480 -49 334 -194 599 -430 787 -44 35
-86 68 -93 74 -29 24 -173 105 -247 139 -108 50 -232 96 -465 170 -525 168
-683 266 -647 400 29 110 179 163 382 136 47 -7 223 -62 290 -91 164 -72 437
-112 570 -83 207 44 365 227 410 473 10 59 6 172 -9 239 -41 177 -174 333
-377 443 -123 67 -363 146 -509 168 -188 28 -251 33 -445 30 -274 -4 -454 -34
-666 -110 -241 -86 -486 -258 -616 -432 -15 -21 -34 -44 -40 -51 -7 -7 -25
-33 -39 -58 -14 -24 -29 -44 -33 -44 -3 0 -26 27 -51 61 -60 82 -209 232 -300
301 -211 159 -438 261 -705 315 -69 14 -188 17 -865 19 -722 3 -790 2 -845
-15z"/>
<path d="M12770 10370 c0 -11 5 -20 10 -20 6 0 10 9 10 20 0 11 -4 20 -10 20
-5 0 -10 -9 -10 -20z"/>
<path d="M12770 10210 c0 -11 5 -20 10 -20 6 0 10 9 10 20 0 11 -4 20 -10 20
-5 0 -10 -9 -10 -20z"/>
<path d="M12770 10050 c0 -11 5 -20 10 -20 6 0 10 9 10 20 0 11 -4 20 -10 20
-5 0 -10 -9 -10 -20z"/>
<path d="M12770 9890 c0 -11 5 -20 10 -20 6 0 10 9 10 20 0 11 -4 20 -10 20
-5 0 -10 -9 -10 -20z"/>
<path d="M12770 9730 c0 -11 5 -20 10 -20 6 0 10 9 10 20 0 11 -4 20 -10 20
-5 0 -10 -9 -10 -20z"/>
<path d="M12770 9570 c0 -11 5 -20 10 -20 6 0 10 9 10 20 0 11 -4 20 -10 20
-5 0 -10 -9 -10 -20z"/>
<path d="M12770 9410 c0 -11 5 -20 10 -20 6 0 10 9 10 20 0 11 -4 20 -10 20
-5 0 -10 -9 -10 -20z"/>
<path d="M12770 9250 c0 -11 5 -20 10 -20 6 0 10 9 10 20 0 11 -4 20 -10 20
-5 0 -10 -9 -10 -20z"/>
<path d="M12770 9090 c0 -11 5 -20 10 -20 6 0 10 9 10 20 0 11 -4 20 -10 20
-5 0 -10 -9 -10 -20z"/>
<path d="M12770 8930 c0 -11 5 -20 10 -20 6 0 10 9 10 20 0 11 -4 20 -10 20
-5 0 -10 -9 -10 -20z"/>
<path d="M12770 8770 c0 -11 5 -20 10 -20 6 0 10 9 10 20 0 11 -4 20 -10 20
-5 0 -10 -9 -10 -20z"/>
<path d="M12770 8610 c0 -11 5 -20 10 -20 6 0 10 9 10 20 0 11 -4 20 -10 20
-5 0 -10 -9 -10 -20z"/>
<path d="M12770 8450 c0 -11 5 -20 10 -20 6 0 10 9 10 20 0 11 -4 20 -10 20
-5 0 -10 -9 -10 -20z"/>
<path d="M526 8380 c-6 -12 1 -1288 7 -1315 3 -16 9 -50 12 -75 18 -132 91
-326 176 -469 282 -471 817 -761 1409 -764 79 0 215 9 264 19 11 2 38 6 60 10
22 3 43 7 46 9 3 2 21 6 40 9 46 7 202 58 265 87 28 12 52 23 55 24 23 6 160
83 220 124 73 49 75 50 95 32 11 -10 49 -36 85 -58 426 -264 976 -329 1451
-172 295 98 561 278 751 509 45 55 128 174 128 184 0 3 13 27 28 53 37 63 95
211 117 298 40 162 42 218 41 870 l-1 630 -585 0 -585 0 -5 -475 c-4 -300 -10
-486 -16 -505 -40 -111 -112 -200 -207 -253 -91 -52 -181 -67 -290 -46 -141
27 -255 122 -317 264 l-25 55 -3 480 -3 480 -587 0 -587 0 -1 -455 c-1 -405
-3 -462 -19 -518 -81 -287 -416 -406 -659 -234 -75 52 -118 109 -159 206 -20
49 -21 66 -23 526 l-1 475 -588 0 c-323 0 -588 -2 -589 -5z"/>
<path d="M12770 8290 c0 -11 5 -20 10 -20 6 0 10 9 10 20 0 11 -4 20 -10 20
-5 0 -10 -9 -10 -20z"/>
<path d="M12770 8130 c0 -11 5 -20 10 -20 6 0 10 9 10 20 0 11 -4 20 -10 20
-5 0 -10 -9 -10 -20z"/>
<path d="M12770 7970 c0 -11 5 -20 10 -20 6 0 10 9 10 20 0 11 -4 20 -10 20
-5 0 -10 -9 -10 -20z"/>
<path d="M12770 7810 c0 -11 5 -20 10 -20 6 0 10 9 10 20 0 11 -4 20 -10 20
-5 0 -10 -9 -10 -20z"/>
<path d="M12770 7650 c0 -11 5 -20 10 -20 6 0 10 9 10 20 0 11 -4 20 -10 20
-5 0 -10 -9 -10 -20z"/>
<path d="M12770 7490 c0 -11 5 -20 10 -20 6 0 10 9 10 20 0 11 -4 20 -10 20
-5 0 -10 -9 -10 -20z"/>
<path d="M12770 7330 c0 -11 5 -20 10 -20 6 0 10 9 10 20 0 11 -4 20 -10 20
-5 0 -10 -9 -10 -20z"/>
<path d="M12770 7170 c0 -11 5 -20 10 -20 6 0 10 9 10 20 0 11 -4 20 -10 20
-5 0 -10 -9 -10 -20z"/>
<path d="M12770 7010 c0 -11 5 -20 10 -20 6 0 10 9 10 20 0 11 -4 20 -10 20
-5 0 -10 -9 -10 -20z"/>
<path d="M12770 6850 c0 -11 5 -20 10 -20 6 0 10 9 10 20 0 11 -4 20 -10 20
-5 0 -10 -9 -10 -20z"/>
<path d="M12770 6690 c0 -11 5 -20 10 -20 6 0 10 9 10 20 0 11 -4 20 -10 20
-5 0 -10 -9 -10 -20z"/>
<path d="M12770 6530 c0 -11 5 -20 10 -20 6 0 10 9 10 20 0 11 -4 20 -10 20
-5 0 -10 -9 -10 -20z"/>
<path d="M12770 6370 c0 -11 5 -20 10 -20 6 0 10 9 10 20 0 11 -4 20 -10 20
-5 0 -10 -9 -10 -20z"/>
<path d="M12770 6210 c0 -11 5 -20 10 -20 6 0 10 9 10 20 0 11 -4 20 -10 20
-5 0 -10 -9 -10 -20z"/>
<path d="M12770 6050 c0 -11 5 -20 10 -20 6 0 10 9 10 20 0 11 -4 20 -10 20
-5 0 -10 -9 -10 -20z"/>
<path d="M12770 5890 c0 -11 5 -20 10 -20 6 0 10 9 10 20 0 11 -4 20 -10 20
-5 0 -10 -9 -10 -20z"/>
<path d="M12770 5730 c0 -11 5 -20 10 -20 6 0 10 9 10 20 0 11 -4 20 -10 20
-5 0 -10 -9 -10 -20z"/>
<path d="M12770 5570 c0 -11 5 -20 10 -20 6 0 10 9 10 20 0 11 -4 20 -10 20
-5 0 -10 -9 -10 -20z"/>
<path d="M12770 5410 c0 -11 5 -20 10 -20 6 0 10 9 10 20 0 11 -4 20 -10 20
-5 0 -10 -9 -10 -20z"/>
<path d="M12770 5250 c0 -11 5 -20 10 -20 6 0 10 9 10 20 0 11 -4 20 -10 20
-5 0 -10 -9 -10 -20z"/>
<path d="M12770 5090 c0 -11 5 -20 10 -20 6 0 10 9 10 20 0 11 -4 20 -10 20
-5 0 -10 -9 -10 -20z"/>
<path d="M4309 4998 c-87 -53 -56 -194 47 -214 73 -14 137 41 136 117 -2 96
-99 148 -183 97z"/>
<path d="M12770 4930 c0 -11 5 -20 10 -20 6 0 10 9 10 20 0 11 -4 20 -10 20
-5 0 -10 -9 -10 -20z"/>
<path d="M2129 4843 c-1 -21 0 -66 1 -100 2 -70 11 -63 -90 -67 l-45 -1 0 -82
-1 -83 67 0 67 0 0 -167 c1 -183 10 -227 59 -291 67 -88 245 -103 381 -33 36
19 42 25 36 44 -6 19 -52 117 -59 125 -1 1 -22 -7 -46 -18 -55 -25 -120 -26
-148 -2 -30 23 -37 66 -36 212 l0 125 124 5 124 5 1 73 c1 41 -3 77 -9 82 -5
5 -53 8 -105 8 -52 0 -104 0 -115 1 -19 1 -21 7 -20 101 l1 100 -93 0 -93 0
-1 -37z"/>
<path d="M10149 4858 c-1 -13 0 -58 1 -100 l1 -78 -48 -1 c-96 -2 -88 6 -88
-86 l-1 -83 67 0 67 0 0 -167 c0 -147 3 -175 22 -225 22 -60 61 -101 118 -125
47 -19 142 -24 204 -9 52 12 138 51 138 62 0 6 -60 137 -64 142 -2 1 -23 -7
-47 -18 -79 -35 -150 -24 -171 28 -11 26 -19 274 -10 300 3 9 37 12 123 12
135 0 121 -13 121 105 l0 60 -93 2 c-52 0 -108 2 -124 2 l-30 1 0 98 0 97 -92
3 c-91 3 -93 2 -94 -20z"/>
<path d="M12770 4770 c0 -11 5 -20 10 -20 6 0 10 9 10 20 0 11 -4 20 -10 20
-5 0 -10 -9 -10 -20z"/>
<path d="M784 4685 c-161 -37 -257 -170 -257 -355 1 -255 198 -400 468 -345
64 13 180 77 173 95 -2 5 -25 33 -53 63 l-50 53 -57 -29 c-89 -46 -182 -42
-242 11 -20 18 -50 81 -42 89 2 3 111 5 240 5 264 0 236 -8 240 68 5 94 -44
210 -115 274 -77 70 -195 97 -305 71z m181 -190 c18 -18 37 -47 43 -64 l11
-31 -150 0 c-97 0 -149 4 -149 10 0 6 6 23 14 38 48 91 163 115 231 47z"/>
<path d="M1588 4695 c-2 -2 -23 -5 -48 -7 -87 -9 -162 -55 -196 -121 -20 -38
-25 -120 -11 -160 33 -90 94 -125 261 -152 102 -17 137 -35 133 -68 -9 -63
-175 -76 -296 -22 -34 15 -63 26 -65 24 -2 -2 -18 -33 -36 -68 l-32 -64 23
-18 c54 -40 192 -69 309 -63 181 8 285 93 284 231 -2 119 -73 179 -249 208
-99 17 -141 31 -148 48 -8 21 12 57 35 66 38 15 150 5 217 -19 35 -12 67 -18
71 -14 14 15 58 128 54 136 -15 24 -287 80 -306 63z"/>
<path d="M2933 4689 c-63 -12 -110 -37 -162 -88 -53 -53 -85 -113 -99 -192
-35 -187 59 -365 220 -417 107 -34 216 -17 281 45 l27 27 0 -37 0 -37 90 0
c50 0 90 3 91 8 1 10 1 621 0 653 l-1 26 -90 0 -90 0 0 -34 0 -34 -37 29 c-60
47 -147 66 -230 51z m172 -188 c22 -10 47 -27 57 -37 15 -17 49 -114 46 -132
-13 -86 -42 -133 -98 -162 -129 -66 -268 36 -253 185 13 130 131 200 248 146z"/>
<path d="M3785 4680 c-160 -44 -257 -172 -257 -340 0 -116 34 -201 110 -272
133 -125 372 -125 495 -1 40 40 43 32 -42 102 -44 37 -56 43 -70 33 -113 -81
-222 -67 -279 35 -46 84 -23 202 50 255 60 42 182 29 227 -26 11 -14 21 -9 76
37 35 28 64 57 64 64 1 6 -19 29 -44 51 -77 68 -215 94 -330 62z"/>
<path d="M4889 4685 c-190 -39 -313 -229 -273 -422 16 -77 42 -128 93 -181 90
-92 225 -128 364 -96 173 41 277 175 274 355 -1 107 -36 188 -110 256 -91 84
-216 115 -348 88z m164 -180 c115 -48 141 -223 45 -312 -76 -71 -208 -54 -268
34 -19 28 -25 51 -27 96 -2 67 9 99 46 141 49 54 132 71 204 41z"/>
<path d="M5810 4688 c-25 -5 -61 -22 -80 -37 -53 -41 -57 -43 -57 -18 -1 12
-1 27 -2 33 -1 12 -170 17 -172 6 -1 -4 -2 -159 -3 -344 l-1 -338 92 0 93 0 1
193 c0 105 2 205 4 220 12 89 115 141 199 102 64 -31 70 -53 72 -285 2 -113 3
-211 3 -217 1 -10 26 -13 91 -13 65 0 90 3 91 13 0 6 1 118 1 247 0 206 -3
241 -19 283 -48 120 -174 183 -313 155z"/>
<path d="M6539 4685 c-73 -19 -117 -45 -164 -97 -63 -70 -88 -141 -88 -253 -1
-112 24 -182 89 -254 103 -115 280 -142 393 -60 47 34 53 35 50 12 -4 -42 -1
-43 91 -43 l90 0 0 344 0 343 -89 1 -90 0 -3 -34 -3 -34 -27 25 c-55 51 -163
73 -249 50z m178 -180 c157 -66 129 -330 -37 -352 -81 -11 -151 22 -185 87
-21 40 -25 119 -10 164 33 96 136 141 232 101z"/>
<path d="M7525 4692 c-50 -9 -89 -26 -121 -54 l-34 -30 0 31 c0 37 -13 41
-115 38 l-70 -2 0 -342 0 -343 92 0 c68 0 93 3 93 13 1 6 2 104 3 217 2 179 4
209 20 233 60 91 196 88 237 -5 16 -37 18 -69 18 -238 0 -107 1 -201 1 -207 1
-10 27 -13 94 -13 l92 0 0 208 c0 188 1 211 20 247 36 72 130 97 196 52 52
-35 58 -66 58 -299 l1 -208 93 0 93 0 -1 253 c-1 238 -3 255 -24 304 -40 91
-124 143 -234 146 -89 2 -152 -19 -202 -67 l-42 -41 -34 34 c-56 56 -157 88
-234 73z"/>
<path d="M8749 4695 c-2 -1 -20 -5 -39 -8 -186 -26 -305 -221 -265 -432 33
-176 158 -277 345 -279 100 0 172 19 247 66 l52 33 -55 61 -54 62 -57 -31
c-121 -66 -253 -29 -287 81 -7 21 -5 22 66 23 40 0 149 1 243 2 l170 2 1 43
c2 116 -33 215 -103 286 -37 38 -101 73 -146 82 -40 7 -115 13 -118 9z m125
-193 c16 -15 56 -83 56 -97 0 -3 -67 -5 -150 -5 -82 0 -150 2 -150 5 0 18 31
73 52 92 46 43 145 46 192 5z"/>
<path d="M9581 4688 c-46 -10 -121 -54 -121 -70 0 -5 -4 -7 -8 -4 -5 3 -7 18
-6 34 l2 29 -93 0 -93 -1 1 -343 0 -343 94 0 93 0 0 208 c0 232 6 257 69 299
64 43 155 21 187 -45 15 -32 18 -67 18 -249 l1 -213 93 0 c89 0 92 1 93 23 4
108 -1 452 -6 479 -31 144 -172 229 -324 196z"/>
<path d="M10970 4685 c-183 -38 -293 -184 -284 -376 14 -284 346 -433 592
-266 124 84 179 267 124 420 -60 168 -242 262 -432 222z m167 -186 c59 -29 94
-89 94 -163 0 -108 -65 -180 -166 -185 -115 -5 -196 78 -190 196 7 132 141
211 262 152z"/>
<path d="M11755 4688 c-162 -24 -244 -138 -204 -281 22 -80 120 -137 262 -152
76 -8 117 -24 127 -49 31 -84 -156 -105 -308 -34 -23 12 -44 19 -46 17 -2 -2
-20 -34 -40 -71 l-36 -66 56 -27 c74 -35 180 -54 278 -50 114 6 196 38 248
100 35 40 52 126 36 182 -24 89 -91 130 -263 162 -60 12 -116 27 -124 36 -20
20 0 62 36 76 38 15 134 5 211 -22 35 -12 65 -20 67 -18 2 2 17 33 33 69 36
76 36 76 -73 108 -79 23 -185 31 -260 20z"/>
<path d="M4283 4333 l0 -343 93 0 94 0 0 344 0 344 -93 -1 -94 0 0 -344z"/>
<path d="M12770 4610 c0 -11 5 -20 10 -20 6 0 10 9 10 20 0 11 -4 20 -10 20
-5 0 -10 -9 -10 -20z"/>
<path d="M12770 4450 c0 -11 5 -20 10 -20 6 0 10 9 10 20 0 11 -4 20 -10 20
-5 0 -10 -9 -10 -20z"/>
<path d="M12770 4290 c0 -11 5 -20 10 -20 6 0 10 9 10 20 0 11 -4 20 -10 20
-5 0 -10 -9 -10 -20z"/>
<path d="M12770 4130 c0 -11 5 -20 10 -20 6 0 10 9 10 20 0 11 -4 20 -10 20
-5 0 -10 -9 -10 -20z"/>
<path d="M12770 3970 c0 -11 5 -20 10 -20 6 0 10 9 10 20 0 11 -4 20 -10 20
-5 0 -10 -9 -10 -20z"/>
<path d="M12770 3810 c0 -11 5 -20 10 -20 6 0 10 9 10 20 0 11 -4 20 -10 20
-5 0 -10 -9 -10 -20z"/>
<path d="M619 3686 c-106 -35 -100 -195 8 -225 44 -12 97 3 122 35 76 97 -13
228 -130 190z"/>
<path d="M3630 3692 c-61 -10 -112 -85 -97 -144 25 -98 151 -124 212 -44 65
85 -8 204 -115 188z"/>
<path d="M3189 3676 c0 -15 0 -954 0 -986 1 -26 1 -26 84 -24 45 1 87 2 92 3
7 1 10 173 10 508 l0 507 -93 1 c-58 1 -92 -3 -93 -9z"/>
<path d="M12770 3650 c0 -11 5 -20 10 -20 6 0 10 9 10 20 0 11 -4 20 -10 20
-5 0 -10 -9 -10 -20z"/>
<path d="M1829 3555 c-1 0 -3 -40 -5 -90 -1 -49 -3 -95 -3 -101 -1 -6 -20 -11
-43 -11 -97 -2 -88 7 -88 -86 l0 -83 66 1 66 0 2 -170 c2 -113 7 -185 16 -215
17 -51 89 -130 119 -130 11 0 23 -4 26 -10 4 -6 46 -9 103 -7 94 4 144 17 199
52 l22 15 -32 70 c-21 46 -38 70 -49 70 -9 0 -19 -4 -22 -9 -3 -4 -25 -14 -50
-21 -58 -16 -110 0 -131 40 -20 38 -22 309 -2 311 6 1 62 2 122 3 l110 1 2 83
c1 70 -1 82 -15 83 -9 0 -65 1 -124 1 l-108 0 0 102 0 101 -90 0 c-49 1 -91 1
-91 0z"/>
<path d="M6462 3551 c-4 -4 -8 -49 -7 -101 l0 -95 -30 -1 c-17 -1 -47 -2 -67
-3 l-37 -1 1 -83 2 -83 65 1 66 0 1 -165 c1 -226 22 -288 114 -340 87 -48 270
-34 347 28 l22 17 -31 65 c-17 36 -32 67 -34 69 -2 2 -22 -4 -46 -14 -57 -23
-86 -26 -126 -14 -51 17 -60 45 -61 209 l-2 145 123 0 123 0 3 83 c3 95 21 85
-145 83 l-102 -1 -3 102 -3 103 -83 0 c-45 1 -86 -1 -90 -4z"/>
<path d="M12770 3490 c0 -11 5 -20 10 -20 6 0 10 9 10 20 0 11 -4 20 -10 20
-5 0 -10 -9 -10 -20z"/>
<path d="M1224 3355 c-22 -9 -55 -29 -72 -46 l-31 -30 -3 37 -3 37 -82 0 c-46
0 -86 -2 -89 -6 -5 -5 -9 -591 -5 -667 1 -12 18 -15 93 -15 l93 0 1 200 c0
110 4 214 8 232 9 37 66 92 99 94 76 5 122 -12 145 -55 14 -26 18 -69 22 -251
l5 -220 90 0 90 0 1 241 c2 207 -1 248 -16 293 -20 60 -67 113 -125 143 -52
27 -164 34 -221 13z"/>
<path d="M2590 3352 c-70 -26 -104 -48 -140 -89 -103 -117 -119 -327 -35 -458
65 -103 144 -145 281 -153 102 -5 177 12 251 54 67 40 67 43 8 107 l-54 58
-46 -27 c-58 -33 -153 -43 -206 -21 -38 15 -82 66 -91 103 -6 22 -5 22 226 22
127 1 237 1 245 1 11 1 13 18 8 86 -10 147 -78 255 -192 307 -65 29 -189 34
-255 10z m174 -156 c37 -15 75 -62 78 -97 3 -23 3 -23 -132 -24 -74 -1 -140 1
-147 3 -9 3 -9 10 0 30 38 88 118 123 201 88z"/>
<path d="M4115 3356 c-136 -43 -222 -167 -226 -321 -1 -86 9 -132 44 -198 86
-164 303 -218 442 -112 l35 26 0 -34 c0 -42 -17 -96 -39 -121 -56 -64 -181
-78 -291 -32 -91 39 -100 41 -100 24 0 -8 -12 -38 -26 -67 -14 -30 -23 -60
-20 -68 14 -36 174 -81 292 -81 170 0 294 75 346 208 20 52 21 73 22 413 l2
357 -94 0 -94 0 4 -30 c5 -36 4 -37 -38 -5 -66 50 -177 68 -259 41z m225 -184
c95 -71 105 -206 20 -283 -43 -40 -73 -49 -133 -43 -160 16 -203 254 -59 330
51 27 132 25 172 -4z"/>
<path d="M4973 3352 c-94 -33 -145 -79 -192 -169 -27 -54 -35 -100 -34 -193 1
-142 69 -251 191 -308 51 -24 68 -27 167 -27 123 1 192 21 253 72 l32 28 -52
58 -53 57 -60 -31 c-53 -27 -68 -30 -126 -27 -70 4 -106 23 -141 76 -40 61
-42 61 217 60 130 0 238 2 241 5 10 10 7 110 -5 160 -20 86 -75 167 -141 208
-76 48 -209 61 -297 31z m197 -171 c26 -19 73 -92 64 -100 -3 -3 -70 -6 -150
-6 -156 0 -157 0 -130 53 40 77 147 104 216 53z"/>
<path d="M5853 3353 c-23 -10 -56 -30 -73 -46 l-30 -27 0 35 c0 26 -4 35 -17
36 -26 1 -125 1 -145 0 -17 -1 -18 -24 -18 -344 l0 -342 90 0 c50 -1 91 2 91
5 1 3 2 97 3 210 2 225 7 248 67 292 50 37 151 21 186 -31 16 -23 18 -54 21
-251 l3 -226 92 1 92 0 0 250 c0 215 -2 256 -18 296 -21 54 -66 103 -121 131
-57 29 -167 34 -223 11z"/>
<path d="M7232 3355 c-97 -27 -169 -91 -214 -192 -17 -38 -21 -68 -22 -143 0
-52 2 -104 5 -115 21 -73 40 -106 94 -160 89 -89 231 -119 380 -80 60 16 132
52 153 77 8 10 -2 27 -43 72 l-53 58 -49 -29 c-41 -24 -58 -28 -125 -28 -62 0
-82 4 -105 21 -30 22 -75 93 -67 106 3 4 96 7 207 7 111 0 220 0 241 0 l39 1
-5 85 c-13 198 -131 324 -313 332 -40 1 -93 -4 -123 -12z m162 -159 c35 -15
71 -57 81 -97 l6 -24 -143 1 c-79 1 -147 2 -151 3 -5 0 4 23 19 50 39 73 112
99 188 67z"/>
<path d="M7965 3355 c-87 -26 -132 -62 -160 -127 -17 -42 -20 -114 -6 -151 28
-74 116 -128 231 -142 69 -8 131 -24 148 -37 20 -17 14 -56 -13 -74 -50 -33
-217 -18 -292 26 -20 11 -37 20 -38 18 -1 -2 -18 -33 -37 -70 -40 -76 -40 -74
37 -107 125 -52 298 -58 404 -14 84 35 137 104 144 188 11 126 -82 205 -271
229 -112 14 -147 39 -123 85 23 42 127 45 241 7 41 -14 74 -24 75 -23 1 1 7
16 15 32 7 17 14 32 14 35 1 3 7 20 15 38 12 30 12 34 -5 47 -11 7 -32 17 -49
21 -16 3 -34 8 -40 10 -69 24 -225 29 -290 9z"/>
<path d="M657 3350 l-89 -5 0 -330 c0 -181 1 -335 1 -340 1 -6 38 -10 91 -10
l90 -1 1 66 c2 195 0 622 -3 623 -2 1 -43 0 -91 -3z"/>
<path d="M3575 3352 c-20 -3 -20 -10 -19 -336 0 -183 3 -337 7 -342 3 -5 45
-9 94 -9 l88 0 0 343 c0 188 -2 342 -5 343 -18 2 -149 3 -165 1z"/>
<path d="M12770 3330 c0 -11 5 -20 10 -20 6 0 10 9 10 20 0 11 -4 20 -10 20
-5 0 -10 -9 -10 -20z"/>
<path d="M12770 3170 c0 -11 5 -20 10 -20 6 0 10 9 10 20 0 11 -4 20 -10 20
-5 0 -10 -9 -10 -20z"/>
<path d="M12770 3010 c0 -11 5 -20 10 -20 6 0 10 9 10 20 0 11 -4 20 -10 20
-5 0 -10 -9 -10 -20z"/>
<path d="M12770 2850 c0 -11 5 -20 10 -20 6 0 10 9 10 20 0 11 -4 20 -10 20
-5 0 -10 -9 -10 -20z"/>
<path d="M12770 2690 c0 -11 5 -20 10 -20 6 0 10 9 10 20 0 11 -4 20 -10 20
-5 0 -10 -9 -10 -20z"/>
<path d="M12770 2530 c0 -11 5 -20 10 -20 6 0 10 9 10 20 0 11 -4 20 -10 20
-5 0 -10 -9 -10 -20z"/>
<path d="M12770 2370 c0 -11 5 -20 10 -20 6 0 10 9 10 20 0 11 -4 20 -10 20
-5 0 -10 -9 -10 -20z"/>
<path d="M12770 2210 c0 -11 5 -20 10 -20 6 0 10 9 10 20 0 11 -4 20 -10 20
-5 0 -10 -9 -10 -20z"/>
</g>
</svg>
